# xmcd CD database file
#
# Track frame offsets:
#	182
#	12990
#	27905
#	40960
#	53687
#	70952
#	80780
#	90022
#	100940
#	110735
#	124895
#	139187
#	152195
#	165175
#	182755
#	202487
#	220015
#
# Disc length: 3098 seconds
#
# Revision: 0
# Processed by: cddbd v1.4PL0 Copyright (c) Steve Scherf et al.
# Submitted via: Feurio! 1.65 - http://www.feurio.com
#
DISCID=eb0c1811
DTITLE=Dr. Feelgood - As It Happens
DYEAR=1979
DGENRE=
TTITLE0=Take A Tip
TTITLE1=Every Kind Of Vice
TTITLE2=Down At The Doctors
TTITLE3=Baby Jane
TTITLE4=Sugar Shaker
TTITLE5=Things Get Better
TTITLE6=She's A Windup
TTITLE7=Lights Out
TTITLE8=Great Balls Of Fire
TTITLE9=Ninety-Nine And A Half (Won't Do)
TTITLE10=My Buddy Buddy Friends
TTITLE11=Milk And Alcohol
TTITLE12=Matchbox
TTITLE13=As Long As The Price Is Right
TTITLE14=Night Time
TTITLE15=Riot In The Cell Block No. 9
TTITLE16=The Blues Had A Baby And They Named It Rock 'n' Roll
EXTD=ARD Grand Records GRAND CD 15
EXTT0=
EXTT1=
EXTT2=
EXTT3=
EXTT4=
EXTT5=
EXTT6=
EXTT7=
EXTT8=
EXTT9=
EXTT10=
EXTT11=
EXTT12=
EXTT13=
EXTT14=
EXTT15=
EXTT16=
PLAYORDER=
